<svg xmlns="http://www.w3.org/2000/svg" viewBox="0 0 677.23 1167.57"><defs><style>.cls-1{fill:#2554a3;}</style></defs><g id="Capa_2" data-name="Capa 2"><g id="Capa_1-2" data-name="Capa 1"><path class="cls-1" d="M675.72,890.34H524.86c-.08-1.78-.23-3.47-.23-5.16q0-184.38,0-368.77c0-6,1.31-5.72-5.75-7q-36.6-6.92-73.18-13.95l-72.43-13.83-72.81-13.89q-36.4-6.94-72.8-13.89t-72.82-13.86c-15.61-3-31.22-5.94-46.8-9.06-.9-.18-1.68-1.57-2.23-2.56-.32-.57-.06-1.46-.06-2.21V241.61c5.11.92,9.82,1.72,14.51,2.61q40.8,7.74,81.6,15.53,42.25,8.07,84.5,16.19,38.42,7.31,76.86,14.54,42.26,8.06,84.51,16.17,40.24,7.68,80.5,15.29t80.5,15.3c21.46,4.1,42.91,8.28,64.39,12.3,2.07.38,2.83,1.09,2.64,3.08-.09,1,0,2,0,3V890.34Z"/><path class="cls-1" d="M415.46,774.28v393.29H306c-.07-1.55-.22-3.23-.22-4.91q0-133,0-266.07c0-5.83,0-5.75-5.62-6.82q-48.84-9.28-97.67-18.63-54.17-10.27-108.33-20.46Q48.94,842.1,3.76,833.47C1,832.94,0,831.81,0,828.8Q.17,764,.08,699.14v-4.06Z"/><path class="cls-1" d="M471.71,260.29c-5.51-1-10.48-1.81-15.42-2.75q-40.62-7.73-81.22-15.51-40.23-7.71-80.47-15.44-38-7.28-76.1-14.5l-81.22-15.51c-9.63-1.84-19.26-3.74-28.92-5.42-2.09-.37-2.71-1.18-2.67-3.15.09-4.37,0-8.75,0-13.12V0c5.46,1,10.65,1.81,15.82,2.79q46.83,8.9,93.66,17.86,54,10.34,107.9,20.72,46.11,8.81,92.23,17.47c17.44,3.31,34.87,6.71,52.34,9.89,3.22.58,4.12,1.89,4.11,5.11q-.16,70.28-.07,140.54v45.91Z"/><path class="cls-1" d="M266.53,708.43c-6.35-1.16-12.3-2.22-18.24-3.34q-42.81-8.13-85.61-16.3-44.27-8.47-88.51-17c-23.77-4.55-47.55-9.11-71.35-13.52-2.33-.43-2.77-1.38-2.77-3.42q.06-66.52.05-133a19.67,19.67,0,0,1,.39-2.68c13.89,2.63,27.52,5.21,41.15,7.81q36.39,6.95,72.8,13.89t72.8,13.86L260,568.55c.25.05.5,0,.75.06,6,1.07,6,1.07,6,7.24q0,63.52,0,127C266.83,704.6,266.65,706.31,266.53,708.43Z"/><path class="cls-1" d="M524.3,79.7l18.49,3.52,80.48,15.33c17.19,3.27,34.39,6.48,51.56,9.87.91.18,1.65,1.69,2.26,2.71.28.46,0,1.22,0,1.84V299.46c-5.72-1-11.15-2-16.55-3q-38.42-7.31-76.81-14.67-28.15-5.35-56.34-10.64c-2.38-.44-3.45-1.36-3.45-4.15q.15-91.8.09-183.59C524.08,82.32,524.21,81.23,524.3,79.7Z"/><path class="cls-1" d="M305.19,577.21c7.08,1.32,13.4,2.48,19.71,3.68l72.79,13.9c5.25,1,10.51,1.9,15.71,3.1.92.21,1.71,1.58,2.28,2.57.32.57.07,1.47.07,2.22v134.2c-6.41-1.19-12.33-2.27-18.24-3.4l-72.79-13.9c-5.37-1-10.72-2.15-16.12-3-2.63-.4-3.49-1.52-3.46-4.17.12-12,.05-24,.05-36V577.21Z"/></g></g></svg>