<svg xmlns="http://www.w3.org/2000/svg" viewBox="0 0 1271.75 303"><defs><style>.cls-1{fill:#fff;}.cls-2{fill:#2554a3;}</style></defs><g id="Capa_2" data-name="Capa 2"><g id="Capa_1-2" data-name="Capa 1"><path class="cls-1" d="M1003.79,266.48v-29h3.8v36h-2.93a.59.59,0,0,1-.37-.18c-1.69-2.16-3.37-4.33-5.07-6.49-1.39-1.76-2.8-3.5-4.19-5.26l-4.79-6.07c-1.36-1.73-2.73-3.44-4.1-5.16l-4.54-5.71a4,4,0,0,0-.3-.26v29.09h-3.81v-36a21.89,21.89,0,0,1,3,0c.37.05.69.62,1,1q3.06,3.84,6.1,7.71c2.13,2.7,4.25,5.42,6.39,8.12,1.62,2,3.27,4.06,4.89,6.1,1.42,1.77,2.8,3.56,4.21,5.33C1003.29,266,1003.51,266.18,1003.79,266.48Z"/><path class="cls-1" d="M1222.51,273.47a20.57,20.57,0,0,1-2.84,0c-.38-.06-.74-.53-1-.89-1.84-2.29-3.65-4.6-5.47-6.91s-3.49-4.49-5.26-6.72c-2-2.49-4-5-6-7.45-1.82-2.28-3.61-4.58-5.41-6.87a2.7,2.7,0,0,0-.3-.25v29.08h-3.81v-36a20.67,20.67,0,0,1,2.95,0c.39.06.75.61,1.06,1q3.06,3.84,6.1,7.7c2.14,2.71,4.25,5.43,6.39,8.13,1.62,2,3.27,4.05,4.9,6.09,1.41,1.77,2.79,3.56,4.2,5.34.19.24.42.45.69.74v-29h3.8Z"/><path class="cls-1" d="M945.37,237a19.59,19.59,0,0,1,8.9,2.09,22.82,22.82,0,0,1,4,2.68,16.58,16.58,0,0,1,5.56,9.23,17.63,17.63,0,0,1,.42,6.11,18.7,18.7,0,0,1-1.92,6.89,17.78,17.78,0,0,1-11.76,9.2,20.53,20.53,0,0,1-6.8.57,19.06,19.06,0,0,1-10.61-4,17.1,17.1,0,0,1-6.44-10.66,18.22,18.22,0,0,1,3.39-14.84,17.54,17.54,0,0,1,10.83-6.64C942.39,237.28,943.89,237.17,945.37,237Zm0,3.44c-1.15.14-2.32.2-3.45.43a14.52,14.52,0,0,0-2.88.88,14.05,14.05,0,0,0-7.31,6.89,15.54,15.54,0,0,0-1.21,9.94,13.86,13.86,0,0,0,5.72,9,15.32,15.32,0,0,0,11,2.71,15.61,15.61,0,0,0,6.24-2,14.06,14.06,0,0,0,6.26-7.87,15.39,15.39,0,0,0,.46-8.08,14.13,14.13,0,0,0-5.17-8.59A15.35,15.35,0,0,0,945.34,240.41Z"/><path class="cls-1" d="M1264.51,255.39h3.69v.7c0,4.11,0,8.23,0,12.35a1.44,1.44,0,0,1-.66,1.25,18.91,18.91,0,0,1-8.62,3.75,22.54,22.54,0,0,1-6.46.2,19.58,19.58,0,0,1-7.07-2.08,17.56,17.56,0,0,1-7.06-6.69,18.19,18.19,0,0,1-2.41-7.85,17.92,17.92,0,0,1,14.37-19.47,22.88,22.88,0,0,1,6.75-.38,17.7,17.7,0,0,1,9.49,3.4c.53.39,1,.89,1.48,1.3a.45.45,0,0,1,0,.77l-1.9,1.94c-1.33-.87-2.53-1.78-3.83-2.48a14.6,14.6,0,0,0-6.6-1.59,16.37,16.37,0,0,0-8.58,1.92,14.29,14.29,0,0,0-6.47,7.26,15.14,15.14,0,0,0-1,7.19,14.28,14.28,0,0,0,3.39,8.18,14.69,14.69,0,0,0,9.26,5.12,16.53,16.53,0,0,0,11.7-2.26,1,1,0,0,0,.51-1c0-3.55,0-7.11,0-10.66Z"/><path class="cls-1" d="M1060.33,237.46h3.83v.89c0,7,0,14.07,0,21.11a13,13,0,0,0,1.19,5.38,9,9,0,0,0,6.54,5.2,14.21,14.21,0,0,0,7.73-.35,8.82,8.82,0,0,0,6-6.61,23.61,23.61,0,0,0,.6-5.16c.06-6.52,0-13,0-19.56v-.9h3.69v.85c0,7.15.09,14.31,0,21.47a14,14,0,0,1-4.63,10.77,12.46,12.46,0,0,1-5.65,2.75,19,19,0,0,1-10.58-.5,12.24,12.24,0,0,1-7.81-8.21,18.18,18.18,0,0,1-.88-5.62q0-10.29,0-20.59Z"/><path class="cls-1" d="M1046.05,240.26c-.44,1-.86,2-1.3,3.05a17.44,17.44,0,0,0-5.4-2.38c-3.61-.83-7.18-1-10.63.62a5.83,5.83,0,0,0-3.41,5.94,5,5,0,0,0,2.18,3.61c1.65,1.24,3.65,1.65,5.58,2.21,2.89.84,5.85,1.53,8.68,2.55a8,8,0,0,1,5.59,5.93,9,9,0,0,1-3.77,9.56,12.89,12.89,0,0,1-5.76,2.1,31.75,31.75,0,0,1-5.24.28,19.62,19.62,0,0,1-10.95-3.75,5.2,5.2,0,0,1-.85-1.14l1.35-2.7a16.63,16.63,0,0,0,9.12,4.2,16.39,16.39,0,0,0,8-.56c1.89-.65,3.53-1.71,4.12-3.74.95-3.28-.1-5.21-2.67-6.63a30.43,30.43,0,0,0-7-2.28c-2.85-.76-5.77-1.34-8.3-2.94a7.73,7.73,0,0,1-3.9-6.37,9.48,9.48,0,0,1,1.85-6.47,8.37,8.37,0,0,1,2-1.85,12.78,12.78,0,0,1,6.4-2.21,33.46,33.46,0,0,1,4.9-.13A19.53,19.53,0,0,1,1046.05,240.26Z"/><path class="cls-1" d="M917.5,242.32l-2.42,2.41a14.62,14.62,0,0,0-5.62-3.48,16.78,16.78,0,0,0-7.32-.6,14.55,14.55,0,0,0-9.7,5.2,13.81,13.81,0,0,0-3.18,7.45,16,16,0,0,0,.85,7.69,14.1,14.1,0,0,0,4.72,6.29,14.83,14.83,0,0,0,7,2.92,16.05,16.05,0,0,0,8.61-1,14,14,0,0,0,4.52-3.07l2.46,2.53c-.81.64-1.74,1.45-2.74,2.15a15.1,15.1,0,0,1-6.73,2.59,25.47,25.47,0,0,1-5.37.28A18.56,18.56,0,0,1,891.22,269a16.78,16.78,0,0,1-5.22-8.54,21.62,21.62,0,0,1-.65-5.88,17.56,17.56,0,0,1,4.18-11.05,17.34,17.34,0,0,1,10.12-6,20.41,20.41,0,0,1,13.76,1.61A14.91,14.91,0,0,1,917.5,242.32Z"/><path class="cls-1" d="M1132.07,237.46h29.21v3.17h-12.6v32.79h-3.83V240.7h-12.78Z"/><path class="cls-1" d="M1106.15,273.42v-36h3.77v32.76h20.16v3.2Z"/><path class="cls-1" d="M1175.84,273.44h-3.73v-36h3.73Z"/><path class="cls-1" d="M746.12,117.15H722.23c.17-3.11.16-6.16.55-9.15A70.72,70.72,0,0,1,725,95.74a43.69,43.69,0,0,1,14.46-20.92c8.46-6.94,18.29-10.64,28.82-12.86A111.28,111.28,0,0,1,787,59.48c4.2-.15,8.41-.75,12.61-.62,7.41.23,14.82.76,22.21,1.37a82.92,82.92,0,0,1,25,6.08c8.78,3.67,16.82,8.59,23.06,15.91A43.73,43.73,0,0,1,880,103.42a57,57,0,0,1,.72,9.23c.06,21.59-.06,43.19.1,64.79,0,5.22.83,10.44,1.34,15.65.3,3,.73,5.95,1.12,9.12h-3.69c-6.14,0-12.28,0-18.42,0-1.16,0-1.6-.3-1.73-1.57-.3-3.11-.88-6.19-1.28-9.29-.22-1.73-.33-3.48-.43-5.23-.06-1.09,0-2.2,0-3.54-2.57,1.82-4.86,3.53-7.24,5.12A93.65,93.65,0,0,1,831,197.25a118.41,118.41,0,0,1-22.64,5.61,90.9,90.9,0,0,1-10.93,1.08c-8.39.35-16.79.79-25.18.66A100.77,100.77,0,0,1,749.81,202c-6.28-1.53-12.29-3.56-17.74-7.14a29.72,29.72,0,0,1-13.48-21.2,88.33,88.33,0,0,1-.72-16.82c.34-8.13,2.83-15.65,8.91-21.42a38.22,38.22,0,0,1,16.67-8.9c5.33-1.44,10.76-2.62,16.21-3.55,5.6-1,11.27-1.53,16.92-2.15,4.17-.46,8.36-.74,12.54-1.08l17.08-1.42c5.45-.47,10.92-.86,16.36-1.44,6.87-.74,13.75-1.46,20.57-2.53a58.53,58.53,0,0,0,10.83-2.9c3.22-1.17,3.75-2.66,2.95-6a22.68,22.68,0,0,0-7.79-12.11,37.79,37.79,0,0,0-13.21-7.49,92,92,0,0,0-11.2-2.89A138.44,138.44,0,0,0,795,81.16c-10.09.39-20.14,1.3-29.74,4.87-5.8,2.15-11,5.19-14.58,10.28a24,24,0,0,0-4.52,13.46C746.07,112.18,746.12,114.59,746.12,117.15ZM857.22,134a126.56,126.56,0,0,1-23.46,3.81c-5.62.42-11.21,1.19-16.83,1.71-4.7.43-9.42.71-14.13,1.07-6.1.47-12.21.91-18.31,1.43-4.87.42-9.73.92-14.59,1.41a70.05,70.05,0,0,0-19.83,4.64c-4.05,1.66-7.53,4.15-8.31,8.81a39.49,39.49,0,0,0-.52,9.08c.26,3.88,1.43,7.71,4.81,10a31.46,31.46,0,0,0,8.06,3.85c7.78,2.54,15.94,2.38,24,2.85a60.49,60.49,0,0,0,7.72-.32c6.46-.44,13-.61,19.36-1.49a144.52,144.52,0,0,0,17.92-3.79A52,52,0,0,0,842.87,167a40.5,40.5,0,0,0,10.2-11.84A36.83,36.83,0,0,0,857.22,134Z"/><path class="cls-1" d="M1050.05,79V19.58h22.88v182.5h-22.84V185c-2.68,2.08-5.09,4.14-7.7,5.9a72,72,0,0,1-27.9,11.3,152,152,0,0,1-16.73,2.11,162.11,162.11,0,0,1-18.7.34c-11.47-.55-22.8-2.15-33.77-5.88a64.14,64.14,0,0,1-28.62-18.9,60.31,60.31,0,0,1-13.34-27.63c-2-9.62-1.9-19.33-1.64-29A67.75,67.75,0,0,1,906.56,99,58.2,58.2,0,0,1,937,67.9a79.27,79.27,0,0,1,19.93-6.22c5.71-1,11.5-1.52,17.26-2.16,2.32-.26,4.67-.25,7-.37,2.1-.12,4.21-.38,6.31-.33,10.08.22,20.14.81,30,3.22a75.14,75.14,0,0,1,28,12.88C1047,76.09,1048.32,77.47,1050.05,79Zm-.07,52.92.47,0c-.5-5.17-.77-10.37-1.54-15.49A33.26,33.26,0,0,0,1040.46,99c-5.55-6.21-12.52-10.24-20.32-13a90.09,90.09,0,0,0-26.92-4.8,159.92,159.92,0,0,0-19.69.69A103.77,103.77,0,0,0,958,84.37c-8.89,2.13-17.1,5.69-23.35,12.79A34.24,34.24,0,0,0,928.17,108a50.17,50.17,0,0,0-2.82,19.55c.23,6.72-.45,13.46,1,20.15,1.83,8.39,5.43,15.65,12,21.37A47.25,47.25,0,0,0,953,177.46c10.66,4,21.83,4.8,33,5.2a79.82,79.82,0,0,0,12.25-.69,138.44,138.44,0,0,0,15.58-2.5c10.51-2.48,19.93-7,27.13-15.48a36.45,36.45,0,0,0,7.58-14.83A59,59,0,0,0,1050,131.93Z"/><path class="cls-1" d="M1183,204.69c-.94,0-1.89.05-2.83,0-6.87-.46-13.75-.83-20.61-1.43a93.56,93.56,0,0,1-28.26-7.2,59.58,59.58,0,0,1-15.46-9.58,57.72,57.72,0,0,1-15.27-19.91,64.81,64.81,0,0,1-4.93-16.17c-1.72-9.93-1.16-19.93-.88-29.88a58.86,58.86,0,0,1,8.14-28.23,62.83,62.83,0,0,1,6.85-9.39A56.59,56.59,0,0,1,1129,68.58,85,85,0,0,1,1149.69,62c5.47-1,11-1.73,16.49-2.47,2.2-.29,4.43-.28,6.66-.38,2.86-.13,5.74-.39,8.6-.33,6.22.14,12.45.18,18.63.74,10.38.95,20.65,2.59,30.49,6.27a67,67,0,0,1,20.14,11.31,56.88,56.88,0,0,1,18.83,30.39,59.56,59.56,0,0,1,1.93,15.36c0,4.16.36,8.34.28,12.5-.18,9.14-1.25,18.18-4.62,26.76a60.09,60.09,0,0,1-11.33,18.4A61.71,61.71,0,0,1,1236.57,195a84.29,84.29,0,0,1-21,6.83c-4,.76-8,1.4-12,1.77-6.82.62-13.65,1-20.48,1.47Zm65-73.59c0-6.07.09-12.12-1.38-18.12-2.61-10.66-8.61-18.54-18.4-23.51a67.59,67.59,0,0,0-18.74-5.94,117.28,117.28,0,0,0-23-2q-9.58.17-19.16.72a53.78,53.78,0,0,0-9.84,1.18,139.48,139.48,0,0,0-16.37,4.89,33.61,33.61,0,0,0-15.29,11.47c-5.48,7.45-7.54,16-7.83,25.13-.13,4.13-.21,8.27,0,12.39a78.42,78.42,0,0,0,1.44,12.62c2.46,11.06,8.9,19.2,19.06,24.34a70.36,70.36,0,0,0,19.42,6.09,145.22,145.22,0,0,0,21.72,2c3.74.11,7.51-.11,11.26-.34,4.24-.25,8.48-.62,12.71-1.05a72.82,72.82,0,0,0,19-4.66A38.29,38.29,0,0,0,1240.49,163c5.11-7.11,7.16-15.32,7.53-24C1248.13,136.42,1248,133.76,1248,131.1Z"/><path class="cls-1" d="M693.7,202.12H670.31V200c0-25.14.16-50.28-.08-75.41a44.61,44.61,0,0,0-7.33-25c-4-6-9.76-9.84-16.19-12.72a61.84,61.84,0,0,0-19.57-5,146.07,146.07,0,0,0-19.5-.69,80,80,0,0,0-24.51,4.49,61.93,61.93,0,0,0-18.45,10.5c-9.73,8-15.25,18.55-18.24,30.51a67.47,67.47,0,0,0-1.9,16.61c.08,18.88,0,37.76,0,56.64v2.16h-22.9V19.61h22.85V85.05l.37.19a31.29,31.29,0,0,1,2-2.41A80.82,80.82,0,0,1,564.2,69.68a72.5,72.5,0,0,1,19.32-7.46,128.74,128.74,0,0,1,13.67-2.32c3.82-.47,7.69-.63,11.54-.73,5-.11,10-.29,14.91,0,11.6.77,23,2.87,33.71,7.49a61.63,61.63,0,0,1,15.46,9.59,56.43,56.43,0,0,1,15.31,20.29,67.57,67.57,0,0,1,4.55,15.2c1.25,6.57,1,13.19,1,19.8q0,34.17,0,68.33Z"/><path class="cls-1" d="M442.88,57.32V202.11H419.27V57.45h-76.5V35.16H519.28V57.32Z"/><rect class="cls-1" width="303" height="303" rx="53.79"/><path class="cls-2" d="M102.88,118c3.34.67,6.68,1.3,10,1.94l15.59,3,15.59,3,15.59,3,15.51,3q7.83,1.5,15.66,3c1.51.29,1.23.24,1.23,1.51q0,39.48,0,79c0,.36,0,.73,0,1.11h32.3V101.84c0-.22,0-.43,0-.64,0-.43-.12-.58-.56-.66-4.6-.86-9.19-1.76-13.79-2.64l-17.23-3.27-17.24-3.28-18.09-3.46-16.46-3.11L123,81.31,105.5,78l-3.11-.56v39.5c0,.16-.06.35,0,.47S102.69,117.91,102.88,118Z"/><path class="cls-2" d="M103,66.62c2.07.37,4.13.77,6.2,1.17l17.39,3.32,16.29,3.1,17.23,3.31,17.39,3.32c1.06.2,2.12.38,3.3.59V71.6q0-15,0-30.09c0-.69-.2-1-.89-1.1-3.74-.68-7.47-1.41-11.2-2.11q-9.87-1.87-19.75-3.75l-23.1-4.43-20-3.83c-1.11-.21-2.22-.39-3.39-.59V63.14c0,.94,0,1.88,0,2.81C102.37,66.37,102.51,66.55,103,66.62Z"/><path class="cls-2" d="M168.75,154.26c-.12-.21-.29-.5-.48-.55-1.12-.26-2.24-.45-3.37-.66l-15.58-3-4.22-.79v21.25c0,2.57,0,5.14,0,7.71,0,.56.17.8.74.89,1.15.17,2.3.41,3.45.63l15.58,3,3.91.73V154.74C168.77,154.57,168.82,154.38,168.75,154.26Z"/><path class="cls-2" d="M192.68,83.75,204.75,86l16.44,3.14c1.16.22,2.32.42,3.54.64V49.89c0-.14.05-.3,0-.4s-.29-.54-.48-.58c-3.68-.72-7.36-1.41-11-2.11L196,43.51l-4-.75c0,.33,0,.56,0,.8q0,19.65,0,39.3C191.94,83.46,192.17,83.66,192.68,83.75Z"/><path class="cls-2" d="M80.36,166.63q7.64,1.43,15.28,2.9l18.94,3.64,18.33,3.49,3.91.72c0-.46.06-.82.06-1.19q0-13.59,0-27.2c0-1.32,0-1.32-1.3-1.55h-.16l-15.59-3-15.58-3-15.59-3-8.81-1.67a3.59,3.59,0,0,0-.09.58V165.9C79.76,166.34,79.86,166.54,80.36,166.63Z"/><path class="cls-2" d="M80.56,204.15l19.35,3.68,23.19,4.39,20.91,4c1.2.23,1.21.22,1.21,1.46v57c0,.36,0,.72.05,1.05h23.44v-84.2l-88.94-17v.87c0,9.25,0,18.51,0,27.76C79.75,203.79,80,204,80.56,204.15Z"/></g></g></svg>