<svg xmlns="http://www.w3.org/2000/svg" viewBox="0 0 1122.09 1122.09"><defs><style>.cls-1{fill:#2554a3;}</style></defs><g id="Capa_2" data-name="Capa 2"><g id="Capa_1-2" data-name="Capa 1"><path class="cls-1" d="M922.89,0H199.19C89.18,0,0,89.18,0,199.19v723.7c0,110,89.18,199.2,199.19,199.2h723.7c110,0,199.2-89.19,199.2-199.2V199.19C1122.09,89.18,1032.9,0,922.89,0ZM379.17,233.83V95.16c4.33.76,8.45,1.44,12.55,2.21q37.13,7.06,74.26,14.16,42.78,8.2,85.56,16.44,36.54,7,73.12,13.85c13.83,2.62,27.65,5.32,41.5,7.84,2.55.46,3.27,1.5,3.26,4.05q-.12,55.72-.06,111.44v36.39c-4.37-.77-8.3-1.43-12.22-2.17q-32.21-6.14-64.4-12.3-31.9-6.12-63.8-12.24-30.17-5.77-60.35-11.5L404.2,251c-7.64-1.46-15.27-3-22.93-4.3-1.66-.29-2.15-.93-2.12-2.5C379.22,240.77,379.17,237.3,379.17,233.83ZM295.42,508.89a15.35,15.35,0,0,1,.32-2.13c11,2.09,21.82,4.13,32.62,6.19l57.73,11,57.72,11,57.72,11c.2,0,.4,0,.6,0,4.79.85,4.79.85,4.79,5.74q0,50.37,0,100.73c0,1.36-.15,2.71-.24,4.39-5-.92-9.76-1.76-14.46-2.65q-33.95-6.45-67.89-12.92-35.08-6.72-70.17-13.49c-18.85-3.61-37.7-7.23-56.58-10.72-1.85-.35-2.19-1.1-2.19-2.72Q295.44,561.63,295.42,508.89Zm329.34,512H538c-.06-1.23-.17-2.56-.17-3.89q0-105.48,0-211c0-4.62,0-4.56-4.46-5.4q-38.73-7.36-77.44-14.77-42.94-8.14-85.9-16.23c-23.89-4.53-47.76-9.13-71.65-13.65-2.18-.41-3-1.31-3-3.69q.13-51.41.06-102.81v-3.22l329.35,62.79ZM625,573q0,51.4,0,102.79v3.62c-5.08-.94-9.77-1.8-14.46-2.7q-28.86-5.49-57.72-11c-4.25-.81-8.49-1.7-12.77-2.35-2.09-.32-2.77-1.21-2.75-3.31.1-9.5,0-19,0-28.52v-78.7c5.61,1,10.62,2,15.63,2.92q28.86,5.49,57.72,11c4.15.79,8.33,1.5,12.45,2.45.73.17,1.36,1.26,1.81,2C625.19,571.72,625,572.43,625,573ZM831.12,377.13v424H711.5c-.06-1.41-.17-2.75-.17-4.09q0-146.21,0-292.4c0-4.73,1-4.53-4.56-5.59q-29-5.47-58-11.06l-57.43-11-57.73-11-57.73-11Q447,449.48,418.1,444c-12.38-2.36-24.76-4.71-37.11-7.19-.71-.14-1.34-1.24-1.77-2-.25-.46-.05-1.16-.05-1.76V286.73c4.06.73,7.79,1.36,11.51,2.07q32.35,6.15,64.7,12.32,33.5,6.39,67,12.83c20.31,3.87,40.63,7.67,60.94,11.53q33.51,6.39,67,12.83,31.92,6.07,63.84,12.11T778,362.56c17,3.25,34,6.57,51.06,9.75,1.64.31,2.24.86,2.09,2.45C831.06,375.54,831.12,376.34,831.12,377.13Zm1.13-192.39V332.6c-4.54-.82-8.84-1.56-13.12-2.37q-30.46-5.81-60.9-11.64-22.34-4.24-44.68-8.43c-1.88-.35-2.74-1.08-2.73-3.3q.12-72.78.07-145.56c0-.87.1-1.73.18-3l14.66,2.8,63.8,12.15c13.63,2.59,27.27,5.14,40.89,7.83.72.14,1.3,1.34,1.79,2.15C832.43,183.64,832.25,184.24,832.25,184.74Z"/></g></g></svg>